<svg xmlns="http://www.w3.org/2000/svg" width="1200" height="630" viewBox="0 0 1200 630">
  <defs>
    <linearGradient id="topLine" x1="0" y1="0" x2="1" y2="0">
      <stop offset="0%" stop-color="transparent"/>
      <stop offset="50%" stop-color="#0088FF"/>
      <stop offset="100%" stop-color="transparent"/>
    </linearGradient>
    <linearGradient id="glow" x1="0.5" y1="0" x2="0.5" y2="1">
      <stop offset="0%" stop-color="#0088FF" stop-opacity="0.15"/>
      <stop offset="100%" stop-color="#0088FF" stop-opacity="0"/>
    </linearGradient>
  </defs>

  <!-- Background -->
  <rect width="1200" height="630" fill="#0A0E14"/>

  <!-- Grid pattern -->
  <g stroke="rgba(0,136,255,0.06)" stroke-width="1">
    <line x1="0" y1="0" x2="0" y2="630"/><line x1="40" y1="0" x2="40" y2="630"/>
    <line x1="80" y1="0" x2="80" y2="630"/><line x1="120" y1="0" x2="120" y2="630"/>
    <line x1="160" y1="0" x2="160" y2="630"/><line x1="200" y1="0" x2="200" y2="630"/>
    <line x1="240" y1="0" x2="240" y2="630"/><line x1="280" y1="0" x2="280" y2="630"/>
    <line x1="320" y1="0" x2="320" y2="630"/><line x1="360" y1="0" x2="360" y2="630"/>
    <line x1="400" y1="0" x2="400" y2="630"/><line x1="440" y1="0" x2="440" y2="630"/>
    <line x1="480" y1="0" x2="480" y2="630"/><line x1="520" y1="0" x2="520" y2="630"/>
    <line x1="560" y1="0" x2="560" y2="630"/><line x1="600" y1="0" x2="600" y2="630"/>
    <line x1="640" y1="0" x2="640" y2="630"/><line x1="680" y1="0" x2="680" y2="630"/>
    <line x1="720" y1="0" x2="720" y2="630"/><line x1="760" y1="0" x2="760" y2="630"/>
    <line x1="800" y1="0" x2="800" y2="630"/><line x1="840" y1="0" x2="840" y2="630"/>
    <line x1="880" y1="0" x2="880" y2="630"/><line x1="920" y1="0" x2="920" y2="630"/>
    <line x1="960" y1="0" x2="960" y2="630"/><line x1="1000" y1="0" x2="1000" y2="630"/>
    <line x1="1040" y1="0" x2="1040" y2="630"/><line x1="1080" y1="0" x2="1080" y2="630"/>
    <line x1="1120" y1="0" x2="1120" y2="630"/><line x1="1160" y1="0" x2="1160" y2="630"/>
    <line x1="0" y1="40" x2="1200" y2="40"/><line x1="0" y1="80" x2="1200" y2="80"/>
    <line x1="0" y1="120" x2="1200" y2="120"/><line x1="0" y1="160" x2="1200" y2="160"/>
    <line x1="0" y1="200" x2="1200" y2="200"/><line x1="0" y1="240" x2="1200" y2="240"/>
    <line x1="0" y1="280" x2="1200" y2="280"/><line x1="0" y1="320" x2="1200" y2="320"/>
    <line x1="0" y1="360" x2="1200" y2="360"/><line x1="0" y1="400" x2="1200" y2="400"/>
    <line x1="0" y1="440" x2="1200" y2="440"/><line x1="0" y1="480" x2="1200" y2="480"/>
    <line x1="0" y1="520" x2="1200" y2="520"/><line x1="0" y1="560" x2="1200" y2="560"/>
    <line x1="0" y1="600" x2="1200" y2="600"/>
  </g>

  <!-- Top accent line -->
  <rect x="0" y="0" width="1200" height="4" fill="url(#topLine)"/>

  <!-- Bottom accent line -->
  <rect x="0" y="626" width="1200" height="4" fill="url(#topLine)"/>

  <!-- Glow effect -->
  <ellipse cx="600" cy="280" rx="400" ry="200" fill="url(#glow)"/>

  <!-- Title: SKY -->
  <text x="440" y="300" font-family="monospace" font-size="72" font-weight="bold" fill="#FFFFFF" letter-spacing="12" text-anchor="end">SKY</text>

  <!-- Title: STRATOS -->
  <text x="460" y="300" font-family="monospace" font-size="72" font-weight="bold" fill="#0088FF" letter-spacing="12">STRATOS</text>

  <!-- Divider -->
  <rect x="540" y="330" width="120" height="2" fill="#0088FF"/>

  <!-- Subtitle -->
  <text x="600" y="380" font-family="monospace" font-size="22" fill="rgba(255,255,255,0.6)" letter-spacing="4" text-anchor="middle">Airline Fleet Operations Intelligence</text>
</svg>
